{
  "accessors": [
    {
      "bufferView": 2,
      "componentType": 5126,
      "count": 198,
      "max": [
        3.3416318893432617,
        234.15994262695313,
        152.52059936523438
      ],
      "min": [
        -3.79905366897583,
        89.94779205322266,
        -87.40235137939453
      ],
      "type": "VEC3"
    },
    {
      "bufferView": 2,
      "byteOffset": 2376,
      "componentType": 5126,
      "count": 198,
      "max": [
        0.9659258723258972,
        1.0,
        0.9659255146980286
      ],
      "min": [
        -0.9659258723258972,
        -1.0,
        -0.9659269452095032
      ],
      "type": "VEC3"
    },
    {
      "bufferView": 1,
      "componentType": 5126,
      "count": 198,
      "max": [
        0.65625,
        1.0
      ],
      "min": [
        0.34375,
        0.0
      ],
      "type": "VEC2"
    },
    {
      "bufferView": 0,
      "componentType": 5125,
      "count": 384,
      "type": "SCALAR"
    },
    {
      "bufferView": 2,
      "byteOffset": 4752,
      "componentType": 5126,
      "count": 552,
      "max": [
        46.16521072387695,
        242.86143493652344,
        163.92803955078125
      ],
      "min": [
        -46.16521072387695,
        28.445682525634766,
        -98.14673614501953
      ],
      "type": "VEC3"
    },
    {
      "bufferView": 2,
      "byteOffset": 11376,
      "componentType": 5126,
      "count": 552,
      "max": [
        1.0,
        1.0,
        1.0
      ],
      "min": [
        -1.0,
        -1.0,
        -1.0
      ],
      "type": "VEC3"
    },
    {
      "bufferView": 1,
      "byteOffset": 1584,
      "componentType": 5126,
      "count": 552,
      "max": [
        0.875,
        1.0
      ],
      "min": [
        0.125,
        0.0
      ],
      "type": "VEC2"
    },
    {
      "bufferView": 0,
      "byteOffset": 1536,
      "componentType": 5125,
      "count": 1434,
      "type": "SCALAR"
    },
    {
      "bufferView": 2,
      "byteOffset": 18000,
      "componentType": 5126,
      "count": 12,
      "max": [
        39.79690933227539,
        110.17715454101563,
        70.66091918945313
      ],
      "min": [
        -39.26679229736328,
        75.89944458007813,
        21.096351623535156
      ],
      "type": "VEC3"
    },
    {
      "bufferView": 2,
      "byteOffset": 18144,
      "componentType": 5126,
      "count": 12,
      "max": [
        1.0,
        0.5386474132537842,
        0.0
      ],
      "min": [
        -1.0,
        -1.2105890334623837e-07,
        -0.8425312638282776
      ],
      "type": "VEC3"
    },
    {
      "bufferView": 1,
      "byteOffset": 6000,
      "componentType": 5126,
      "count": 12,
      "max": [
        0.8589784502983093,
        0.6019929051399231
      ],
      "min": [
        0.5230134725570679,
        0.1480070799589157
      ],
      "type": "VEC2"
    },
    {
      "bufferView": 0,
      "byteOffset": 7272,
      "componentType": 5125,
      "count": 18,
      "type": "SCALAR"
    },
    {
      "bufferView": 2,
      "byteOffset": 18288,
      "componentType": 5126,
      "count": 470,
      "max": [
        62.5837516784668,
        25.83586883544922,
        176.30056762695313
      ],
      "min": [
        -61.98892593383789,
        2.8263301849365234,
        -1.1887054443359375
      ],
      "type": "VEC3"
    },
    {
      "bufferView": 2,
      "byteOffset": 23928,
      "componentType": 5126,
      "count": 470,
      "max": [
        1.0,
        1.0,
        1.0
      ],
      "min": [
        -1.0,
        -1.0,
        -1.0
      ],
      "type": "VEC3"
    },
    {
      "bufferView": 1,
      "byteOffset": 6096,
      "componentType": 5126,
      "count": 470,
      "max": [
        0.65625,
        1.0
      ],
      "min": [
        0.34375,
        1.4901161193847656e-08
      ],
      "type": "VEC2"
    },
    {
      "bufferView": 0,
      "byteOffset": 7344,
      "componentType": 5125,
      "count": 1242,
      "type": "SCALAR"
    },
    {
      "bufferView": 2,
      "byteOffset": 29568,
      "componentType": 5126,
      "count": 470,
      "max": [
        62.76881408691406,
        23.996990203857422,
        169.64637756347656
      ],
      "min": [
        -62.173988342285156,
        3.960862159729004,
        5.4654860496521
      ],
      "type": "VEC3"
    },
    {
      "bufferView": 2,
      "byteOffset": 35208,
      "componentType": 5126,
      "count": 470,
      "max": [
        1.0,
        1.0,
        1.0
      ],
      "min": [
        -1.0,
        -1.0,
        -1.0
      ],
      "type": "VEC3"
    },
    {
      "bufferView": 1,
      "byteOffset": 9856,
      "componentType": 5126,
      "count": 470,
      "max": [
        0.65625,
        1.0
      ],
      "min": [
        0.34375,
        1.4901161193847656e-08
      ],
      "type": "VEC2"
    },
    {
      "bufferView": 0,
      "byteOffset": 12312,
      "componentType": 5125,
      "count": 1242,
      "type": "SCALAR"
    },
    {
      "bufferView": 2,
      "byteOffset": 40848,
      "componentType": 5126,
      "count": 68,
      "max": [
        45.828853607177734,
        28.57650375366211,
        135.0924072265625
      ],
      "min": [
        -45.828853607177734,
        25.622833251953125,
        43.434696197509766
      ],
      "type": "VEC3"
    },
    {
      "bufferView": 2,
      "byteOffset": 41664,
      "componentType": 5126,
      "count": 68,
      "max": [
        1.0,
        1.0,
        1.0
      ],
      "min": [
        -1.0,
        -1.0,
        -1.0
      ],
      "type": "VEC3"
    },
    {
      "bufferView": 1,
      "byteOffset": 13616,
      "componentType": 5126,
      "count": 68,
      "max": [
        0.65625,
        1.0
      ],
      "min": [
        0.34375,
        1.4901161193847656e-08
      ],
      "type": "VEC2"
    },
    {
      "bufferView": 0,
      "byteOffset": 17280,
      "componentType": 5125,
      "count": 192,
      "type": "SCALAR"
    },
    {
      "bufferView": 2,
      "byteOffset": 42480,
      "componentType": 5126,
      "count": 417,
      "max": [
        33.35957717895508,
        221.6936798095703,
        -300.2874755859375
      ],
      "min": [
        -33.35957717895508,
        36.3961067199707,
        -367.00665283203125
      ],
      "type": "VEC3"
    },
    {
      "bufferView": 2,
      "byteOffset": 47484,
      "componentType": 5126,
      "count": 417,
      "max": [
        1.0,
        1.0,
        1.0
      ],
      "min": [
        -1.0,
        -1.0,
        -1.0
      ],
      "type": "VEC3"
    },
    {
      "bufferView": 1,
      "byteOffset": 14160,
      "componentType": 5126,
      "count": 417,
      "max": [
        1.0,
        1.0
      ],
      "min": [
        0.0,
        0.0
      ],
      "type": "VEC2"
    },
    {
      "bufferView": 0,
      "byteOffset": 18048,
      "componentType": 5125,
      "count": 1944,
      "type": "SCALAR"
    }
  ],
  "asset": {
    "extras": {
      "author": "LewisBaker (https://sketchfab.com/LewisBaker)",
      "license": "CC-BY-4.0 (http://creativecommons.org/licenses/by/4.0/)",
      "source": "https://sketchfab.com/3d-models/toy-crane-b6ceed673325435ca965f5b34d047fe5",
      "title": "Toy Crane"
    },
    "generator": "Sketchfab-12.68.0",
    "version": "2.0"
  },
  "bufferViews": [
    {
      "buffer": 0,
      "byteLength": 25824,
      "name": "floatBufferViews",
      "target": 34963
    },
    {
      "buffer": 0,
      "byteLength": 17496,
      "byteOffset": 25824,
      "byteStride": 8,
      "name": "floatBufferViews",
      "target": 34962
    },
    {
      "buffer": 0,
      "byteLength": 52488,
      "byteOffset": 43320,
      "byteStride": 12,
      "name": "floatBufferViews",
      "target": 34962
    }
  ],
  "buffers": [
    {
      "byteLength": 95808,
      "uri": "scene.bin"
    }
  ],
  "materials": [
    {
      "doubleSided": true,
      "name": "solidShader3",
      "pbrMetallicRoughness": {
        "baseColorFactor": [
          0.017,
          0.017,
          0.017,
          1.0
        ],
        "metallicFactor": 0.0,
        "roughnessFactor": 0.6
      }
    },
    {
      "doubleSided": true,
      "name": "solidShader1",
      "pbrMetallicRoughness": {
        "baseColorFactor": [
          0.138216,
          0.0,
          0.0,
          1.0
        ],
        "metallicFactor": 0.0,
        "roughnessFactor": 0.6
      }
    },
    {
      "doubleSided": true,
      "name": "solidShader2",
      "pbrMetallicRoughness": {
        "baseColorFactor": [
          0.218064,
          0.472,
          0.472,
          1.0
        ],
        "metallicFactor": 0.0,
        "roughnessFactor": 0.6
      }
    },
    {
      "doubleSided": true,
      "name": "solidShader5",
      "pbrMetallicRoughness": {
        "baseColorFactor": [
          0.007,
          0.007,
          0.007,
          1.0
        ],
        "metallicFactor": 0.0,
        "roughnessFactor": 0.6
      }
    },
    {
      "doubleSided": true,
      "name": "solidShader7",
      "pbrMetallicRoughness": {
        "baseColorFactor": [
          0.067,
          0.067,
          0.067,
          1.0
        ],
        "metallicFactor": 0.0,
        "roughnessFactor": 0.6
      }
    },
    {
      "doubleSided": true,
      "name": "solidShader6",
      "pbrMetallicRoughness": {
        "baseColorFactor": [
          0.174,
          0.0,
          0.0,
          1.0
        ],
        "metallicFactor": 0.0,
        "roughnessFactor": 0.6
      }
    },
    {
      "doubleSided": true,
      "name": "solidShader",
      "pbrMetallicRoughness": {
        "baseColorFactor": [
          0.008,
          0.008,
          0.008,
          1.0
        ],
        "metallicFactor": 0.0,
        "roughnessFactor": 0.6
      }
    }
  ],
  "meshes": [
    {
      "name": "group12_pasted__Cabal_solidShader3_0",
      "primitives": [
        {
          "attributes": {
            "NORMAL": 1,
            "POSITION": 0,
            "TEXCOORD_0": 2
          },
          "indices": 3,
          "material": 0,
          "mode": 4
        }
      ]
    },
    {
      "name": "group12_pasted__Cabal_solidShader1_0",
      "primitives": [
        {
          "attributes": {
            "NORMAL": 5,
            "POSITION": 4,
            "TEXCOORD_0": 6
          },
          "indices": 7,
          "material": 1,
          "mode": 4
        }
      ]
    },
    {
      "name": "group12_pasted__Cabal_solidShader2_0",
      "primitives": [
        {
          "attributes": {
            "NORMAL": 9,
            "POSITION": 8,
            "TEXCOORD_0": 10
          },
          "indices": 11,
          "material": 2,
          "mode": 4
        }
      ]
    },
    {
      "name": "Wheels1_solidShader5_0",
      "primitives": [
        {
          "attributes": {
            "NORMAL": 13,
            "POSITION": 12,
            "TEXCOORD_0": 14
          },
          "indices": 15,
          "material": 3,
          "mode": 4
        }
      ]
    },
    {
      "name": "Wheels1_solidShader7_0",
      "primitives": [
        {
          "attributes": {
            "NORMAL": 17,
            "POSITION": 16,
            "TEXCOORD_0": 18
          },
          "indices": 19,
          "material": 4,
          "mode": 4
        }
      ]
    },
    {
      "name": "Wheels1_solidShader6_0",
      "primitives": [
        {
          "attributes": {
            "NORMAL": 21,
            "POSITION": 20,
            "TEXCOORD_0": 22
          },
          "indices": 23,
          "material": 5,
          "mode": 4
        }
      ]
    },
    {
      "name": "polySurface1_solidShader_0",
      "primitives": [
        {
          "attributes": {
            "NORMAL": 25,
            "POSITION": 24,
            "TEXCOORD_0": 26
          },
          "indices": 27,
          "material": 6,
          "mode": 4
        }
      ]
    }
  ],
  "nodes": [
    {
      "children": [
        1
      ],
      "matrix": [
        1.0,
        0.0,
        0.0,
        0.0,
        0.0,
        2.220446049250313e-16,
        -1.0,
        0.0,
        0.0,
        1.0,
        2.220446049250313e-16,
        0.0,
        0.0,
        0.0,
        0.0,
        1.0
      ],
      "name": "Sketchfab_model"
    },
    {
      "children": [
        2
      ],
      "matrix": [
        1.0,
        0.0,
        0.0,
        0.0,
        0.0,
        0.0,
        1.0,
        0.0,
        0.0,
        -1.0,
        0.0,
        0.0,
        0.0,
        0.0,
        0.0,
        1.0
      ],
      "name": "f1860ffbce6641868ed68be669e28e00.fbx"
    },
    {
      "children": [
        3,
        7,
        11
      ],
      "name": "RootNode"
    },
    {
      "children": [
        4,
        5,
        6
      ],
      "matrix": [
        0.15551622211933136,
        0.0,
        0.0,
        0.0,
        0.0,
        0.15551622211933136,
        0.0,
        0.0,
        0.0,
        0.0,
        0.15551622211933136,
        0.0,
        0.0,
        -4.319110870361328,
        -16.369354248046875,
        1.0
      ],
      "name": "group12_pasted__Cabal"
    },
    {
      "mesh": 0,
      "name": "group12_pasted__Cabal_solidShader3_0"
    },
    {
      "mesh": 1,
      "name": "group12_pasted__Cabal_solidShader1_0"
    },
    {
      "mesh": 2,
      "name": "group12_pasted__Cabal_solidShader2_0"
    },
    {
      "children": [
        8,
        9,
        10
      ],
      "matrix": [
        0.15551622211933136,
        0.0,
        0.0,
        0.0,
        0.0,
        0.15551622211933136,
        0.0,
        0.0,
        0.0,
        0.0,
        0.15551622211933136,
        0.0,
        0.2511603534221649,
        -4.35648250579834,
        -16.066146850585938,
        1.0
      ],
      "name": "Wheels1"
    },
    {
      "mesh": 3,
      "name": "Wheels1_solidShader5_0"
    },
    {
      "mesh": 4,
      "name": "Wheels1_solidShader7_0"
    },
    {
      "mesh": 5,
      "name": "Wheels1_solidShader6_0"
    },
    {
      "children": [
        12
      ],
      "matrix": [
        0.15551622211933136,
        0.0,
        0.0,
        0.0,
        0.0,
        0.15551622211933136,
        0.0,
        0.0,
        0.0,
        0.0,
        0.15551622211933136,
        0.0,
        0.0,
        -2.072021484375,
        20.980709075927734,
        1.0
      ],
      "name": "polySurface1"
    },
    {
      "mesh": 6,
      "name": "polySurface1_solidShader_0"
    }
  ],
  "scene": 0,
  "scenes": [
    {
      "name": "Sketchfab_Scene",
      "nodes": [
        0
      ]
    }
  ]
}
